<?xml version="1.0" encoding="iso-8859-1"?>
<!-- Generator: Adobe Illustrator 19.0.0, SVG Export Plug-In . SVG Version: 6.00 Build 0)  -->
<svg xmlns="http://www.w3.org/2000/svg" xmlns:xlink="http://www.w3.org/1999/xlink" version="1.1" id="Capa_1" x="0px" y="0px" viewBox="0 0 512.001 512.001" style="enable-background:new 0 0 512.001 512.001;" xml:space="preserve" width="512px" height="512px">
<g>
	<g>
		<g>
			<path d="M445.271,112.115c1.155-9.489,0.947-19.144-0.625-28.763c-6.535-40.198-37.559-72.795-77.198-81.114     c-26.331-5.527-53.064-0.733-75.271,13.497c-22.314,14.295-50.038,14.295-72.352,0c-22.209-14.231-48.94-19.027-75.272-13.497     c-39.64,8.319-70.664,40.916-77.197,81.106c-1.573,9.626-1.781,19.281-0.625,28.771c-25.23,27.424-40.736,66.738-40.736,103.876     c0.002,7.211,0.591,14.481,1.751,21.603c9.647,59.499,58.616,110.815,128.463,135.184l3.681,50.229     c3.869,50.18,45.707,88.994,96.113,88.994c50.32,0,92.223-38.682,96.116-89.032l3.678-50.192     c69.848-24.369,118.815-75.685,128.462-135.177c1.162-7.129,1.75-14.399,1.75-21.609     C486.007,178.853,470.5,139.539,445.271,112.115z M50.199,246.701c53.187,5.938,96.763,49.053,104.16,104.045     C100.86,329.721,62.455,291.348,50.199,246.701z M332.175,421.468c-3.077,39.781-36.208,70.533-76.172,70.533     c-39.663,0-73.122-30.981-76.169-70.493l-2.295-31.324c4.495-12.543,18.026-21.187,33.463-21.187     c9.001,0,17.56,2.939,24.101,8.28c11.915,9.716,29.886,9.716,41.805-0.004c6.537-5.337,15.094-8.276,24.097-8.276     c15.438,0,28.969,8.643,33.464,21.187L332.175,421.468z M357.649,350.745c7.41-55.004,50.98-98.107,104.159-104.044     C449.554,291.344,411.149,329.719,357.649,350.745z M465.524,226.298c-67.856,4.548-123.257,60.851-128.573,129.983l-0.339,4.631     c-9.71-7.486-22.229-11.914-35.609-11.914c-13.598,0-26.648,4.54-36.741,12.78c-4.477,3.65-12.042,3.651-16.516,0.004     c-10.097-8.244-23.147-12.784-36.745-12.784c-13.38,0-25.899,4.428-35.609,11.914l-0.342-4.66     c-2.681-34.868-18.184-67.518-43.65-91.936c-23.573-22.602-53.445-35.909-84.921-38.018c-0.311-3.432-0.484-6.875-0.484-10.304     c0.002-33.746,14.731-69.558,38.443-93.461c2.283-2.302,3.309-5.567,2.751-8.762c-1.554-8.906-1.585-18.059-0.09-27.207     c5.136-31.594,30.453-58.221,61.565-64.75c21.166-4.443,42.608-0.621,60.374,10.763c28.97,18.561,64.962,18.562,93.933,0     c17.765-11.383,39.203-15.205,60.373-10.763c31.112,6.529,56.429,33.156,61.566,64.758c1.493,9.141,1.462,18.293-0.092,27.199     c-0.558,3.194,0.468,6.46,2.751,8.762c23.711,23.902,38.44,59.714,38.44,93.461C466.008,219.422,465.835,222.865,465.524,226.298     z" fill="#91DC5A"/>
			<path d="M321.551,207.673c-39.819-26.547-91.278-26.547-131.098,0c-4.595,3.063-5.837,9.272-2.773,13.867     c3.064,4.595,9.273,5.838,13.867,2.773c33.08-22.054,75.829-22.054,108.909,0c4.575,3.05,10.791,1.842,13.867-2.773     C327.389,216.945,326.147,210.736,321.551,207.673z" fill="#91DC5A"/>
			<path d="M321.551,267.675c-39.819-26.547-91.278-26.547-131.098,0c-4.595,3.063-5.837,9.272-2.773,13.867     c3.064,4.595,9.273,5.839,13.867,2.773c33.08-22.054,75.829-22.054,108.909,0c4.575,3.05,10.791,1.842,13.867-2.773     C327.389,276.947,326.147,270.738,321.551,267.675z" fill="#91DC5A"/>
			<path d="M236.002,99.99h40.001c5.523,0,10-4.477,10-10c0-5.523-4.477-10-10-10h-40.001c-5.523,0-10,4.477-10,10     C226.002,95.513,230.479,99.99,236.002,99.99z" fill="#91DC5A"/>
			<path d="M236.002,139.991h40.001c5.523,0,10-4.477,10-10c0-5.523-4.477-10-10-10h-40.001c-5.523,0-10,4.477-10,10     C226.002,135.514,230.479,139.991,236.002,139.991z" fill="#91DC5A"/>
			<path d="M145.999,59.989c-16.542,0-30.001,13.458-30.001,30.001c0,16.543,13.458,30.001,30.001,30.001S176,106.532,176,89.99     C176,73.447,162.542,59.989,145.999,59.989z M145.999,99.99c-5.514,0-10-4.486-10-10c0-5.514,4.486-10,10-10s10,4.486,10,10     C156,95.504,151.513,99.99,145.999,99.99z" fill="#91DC5A"/>
			<path d="M366.006,59.989c-16.542,0-30.001,13.458-30.001,30.001c0,16.543,13.458,30.001,30.001,30.001     s30.001-13.458,30.001-30.001C396.007,73.447,382.548,59.989,366.006,59.989z M366.006,99.99c-5.514,0-10-4.486-10-10     c0-5.514,4.486-10,10-10s10,4.486,10,10C376.006,95.504,371.52,99.99,366.006,99.99z" fill="#91DC5A"/>
			<path d="M226.002,411.999c-11.028,0-20.001,8.972-20.001,20.001c0,11.028,8.972,20.001,20.001,20.001s20.001-8.972,20.001-20.001     C246.002,420.971,237.03,411.999,226.002,411.999z" fill="#91DC5A"/>
			<path d="M286.003,411.999c-11.028,0-20.001,8.972-20.001,20.001c0,11.028,8.972,20.001,20.001,20.001     c11.028,0,20.001-8.972,20.001-20.001C306.004,420.971,297.032,411.999,286.003,411.999z" fill="#91DC5A"/>
		</g>
	</g>
</g>
<g>
</g>
<g>
</g>
<g>
</g>
<g>
</g>
<g>
</g>
<g>
</g>
<g>
</g>
<g>
</g>
<g>
</g>
<g>
</g>
<g>
</g>
<g>
</g>
<g>
</g>
<g>
</g>
<g>
</g>
</svg>
