<?xml version="1.0" standalone="no"?>
<!DOCTYPE svg PUBLIC "-//W3C//DTD SVG 20010904//EN"
 "http://www.w3.org/TR/2001/REC-SVG-20010904/DTD/svg10.dtd">
<svg version="1.0" xmlns="http://www.w3.org/2000/svg"
 width="512.000000pt" height="512.000000pt" viewBox="0 0 512.000000 512.000000"
 preserveAspectRatio="xMidYMid meet">
<metadata>
Created by potrace 1.15, written by Peter Selinger 2001-2017
</metadata>
<g transform="translate(0.000000,512.000000) scale(0.100000,-0.100000)"
fill="#000000" stroke="none">
<path d="M2815 4054 c-490 -38 -917 -276 -1206 -674 -193 -265 -303 -586 -324
-945 -16 -262 62 -418 258 -514 45 -22 93 -42 107 -45 14 -2 64 -14 111 -25
247 -60 699 -86 1339 -77 647 8 898 37 1142 131 200 78 290 197 305 405 8 119
-13 344 -46 472 -143 564 -551 1014 -1082 1191 -132 44 -227 64 -370 77 -110
9 -149 10 -234 4z m174 -314 c149 -76 290 -411 352 -835 18 -121 18 -452 1
-530 -33 -144 -110 -245 -215 -282 -75 -26 -349 -26 -423 0 -103 36 -168 116
-206 253 -18 68 -21 105 -21 274 0 204 14 336 53 506 77 330 190 552 315 617
41 22 98 21 144 -3z m-642 -226 c43 -27 43 -139 -1 -369 -44 -224 -57 -334
-66 -545 -13 -287 -29 -346 -100 -383 -31 -16 -53 -17 -185 -12 -265 11 -357
45 -419 155 -27 48 -31 66 -34 150 -12 299 165 714 377 884 151 121 342 175
428 120z m1419 0 c197 -54 364 -290 472 -664 57 -196 70 -351 38 -447 -48
-144 -153 -190 -446 -195 -186 -3 -203 1 -234 66 -27 58 -37 131 -46 371 -5
127 -16 293 -24 370 -34 322 -31 421 15 479 36 46 108 53 225 20z"/>
<path d="M645 3752 c-52 -33 -68 -59 -73 -115 -12 -151 167 -210 261 -85 24
32 25 107 2 145 -39 66 -131 93 -190 55z"/>
</g>
</svg>
